<svg id="Layer_1" data-name="Layer 1" xmlns="http://www.w3.org/2000/svg" viewBox="0 0 568.23 268.21"><defs><style>.cls-1{fill:#6b0f1c;}.cls-2{fill:none;stroke:#231f20;stroke-miterlimit:10;}</style></defs><title>lobsang-ee</title><path class="cls-1" d="M14.61,56.86V8.48H38.86V56.37c0,12.44,6.28,18.34,15.88,18.34S70.62,69.05,70.62,57V8.48H94.87V56.25c0,27.82-15.88,40-40.37,40S14.61,83.82,14.61,56.86" transform="translate(-14.61 -6.76)"/><polygon class="cls-1" points="155.6 22.65 129.75 22.65 129.75 1.72 205.34 1.72 205.34 22.65 179.48 22.65 179.48 87.9 155.6 87.9 155.6 22.65"/><path class="cls-1" d="M222,81.85,235.32,66c8.49,6.77,18,10.34,27.95,10.34,6.4,0,9.84-2.21,9.84-5.9v-.25c0-3.57-2.83-5.54-14.52-8.25-18.34-4.19-32.5-9.36-32.5-27.08v-.25c0-16,12.68-27.57,33.36-27.57,14.65,0,26.1,3.94,35.46,11.44L283,35.32c-7.88-5.54-16.49-8.5-24.13-8.5-5.78,0-8.61,2.47-8.61,5.54v.25c0,3.94,2.95,5.66,14.89,8.37,19.82,4.31,32.13,10.71,32.13,26.84v.24c0,17.61-13.91,28.07-34.84,28.07-15.26,0-29.79-4.8-40.37-14.28" transform="translate(-14.61 -6.76)"/><path class="cls-1" d="M336.75,7.87h23l36.68,86.79h-25.6l-6.28-15.39H331.34l-6.16,15.39H300.07Zm20.93,52.81-9.6-24.5-9.72,24.5Z" transform="translate(-14.61 -6.76)"/><polygon class="cls-1" points="390.22 1.72 412.5 1.72 447.96 47.27 447.96 1.72 471.59 1.72 471.59 87.9 450.67 87.9 413.86 40.63 413.86 87.9 390.22 87.9 390.22 1.72"/><path class="cls-1" d="M498.5,51.82v-.25c0-25.11,19.7-44.81,46.41-44.81,15.15,0,25.85,4.68,35,12.56l-14,16.86c-6.15-5.17-12.31-8.12-20.8-8.12-12.44,0-22,10.46-22,23.63v.25c0,13.91,9.73,23.88,23.39,23.88,5.79,0,10.22-1.23,13.79-3.57V61.79h-17V44.31h39.64V83.08a58.27,58.27,0,0,1-37.43,13.3c-26.83,0-46.9-18.46-46.9-44.56" transform="translate(-14.61 -6.76)"/><path class="cls-1" d="M14.61,156.62v-.25c0-25.11,19.32-44.81,45.42-44.81,17.61,0,28.93,7.39,36.56,18l-18,13.91C73.7,137.29,68,133.35,59.78,133.35c-12.06,0-20.55,10.22-20.55,22.77v.25c0,12.92,8.49,23,20.55,23,9,0,14.29-4.19,19.46-10.46l18,12.8c-8.13,11.2-19.08,19.45-38.16,19.45-24.63,0-44.44-18.83-44.44-44.56" transform="translate(-14.61 -6.76)"/><polygon class="cls-1" points="92.81 106.52 116.7 106.52 116.7 138.78 147.35 138.78 147.35 106.52 171.23 106.52 171.23 192.7 147.35 192.7 147.35 159.95 116.7 159.95 116.7 192.7 92.81 192.7 92.81 106.52"/><rect class="cls-1" x="186.98" y="106.52" width="24.01" height="86.17"/><polygon class="cls-1" points="247.79 127.45 221.94 127.45 221.94 106.52 297.53 106.52 297.53 127.45 271.68 127.45 271.68 192.7 247.79 192.7 247.79 127.45"/><polygon class="cls-1" points="307.99 106.52 331.87 106.52 331.87 138.78 362.52 138.78 362.52 106.52 386.41 106.52 386.41 192.7 362.52 192.7 362.52 159.95 331.87 159.95 331.87 192.7 307.99 192.7 307.99 106.52"/><path class="cls-1" d="M415.16,161.66V113.28h24.25v47.89c0,12.44,6.28,18.34,15.89,18.34s15.88-5.66,15.88-17.72V113.28h24.25v47.77c0,27.82-15.88,40-40.38,40s-39.89-12.44-39.89-39.4" transform="translate(-14.61 -6.76)"/><polygon class="cls-1" points="494.97 106.52 564.28 106.52 564.28 126.84 518.61 126.84 518.61 139.89 559.97 139.89 559.97 158.72 518.61 158.72 518.61 172.38 564.9 172.38 564.9 192.7 494.97 192.7 494.97 106.52"/><path class="cls-1" d="M144.58,233.2a25.45,25.45,0,0,0-5.92,6.29l-2.54-1.7a33.72,33.72,0,0,1,3.09-4.06,18.22,18.22,0,0,1,3.51-3.08,15.77,15.77,0,0,1,4.27-2,18.9,18.9,0,0,1,5.34-.69,15,15,0,0,1,5.4.94,12.67,12.67,0,0,1,4.26,2.64,12.45,12.45,0,0,1,2.84,4,12,12,0,0,1,1,5,14.52,14.52,0,0,1-.65,4.39,16.1,16.1,0,0,1-2.05,4.11,35.8,35.8,0,0,1-3.55,4.29q-2.15,2.25-5.15,5l-13.93,12.63h25.78v3.26H135.2v-2.54l17-15.34c1.86-1.69,3.45-3.23,4.75-4.62a27.1,27.1,0,0,0,3.12-3.9,14.43,14.43,0,0,0,1.7-3.51,12,12,0,0,0,.52-3.5,9.55,9.55,0,0,0-.85-4,9.33,9.33,0,0,0-2.25-3.08,9.66,9.66,0,0,0-3.28-1.95A11.3,11.3,0,0,0,152,231a12.47,12.47,0,0,0-7.42,2.18" transform="translate(-14.61 -6.76)"/><path class="cls-1" d="M272.85,260.35a24.09,24.09,0,0,1-3.8,7.52,18.91,18.91,0,0,1-6,5.18,16,16,0,0,1-7.84,1.92,16.19,16.19,0,0,1-7.85-1.89,18.23,18.23,0,0,1-5.92-5.11,23.72,23.72,0,0,1-3.75-7.49,30.64,30.64,0,0,1-1.3-9,30.31,30.31,0,0,1,1.33-9,24.54,24.54,0,0,1,3.81-7.52,19,19,0,0,1,6-5.18,16,16,0,0,1,7.85-1.92,16.18,16.18,0,0,1,7.84,1.89,18.23,18.23,0,0,1,5.92,5.11,23.83,23.83,0,0,1,3.75,7.49,30.64,30.64,0,0,1,1.3,9,30,30,0,0,1-1.34,9m-3.25-16.6a21.55,21.55,0,0,0-3.09-6.57,16.4,16.4,0,0,0-4.88-4.56,12.67,12.67,0,0,0-12.73,0,15.59,15.59,0,0,0-4.82,4.52,22.15,22.15,0,0,0-3.06,6.54,28.35,28.35,0,0,0,0,15.43,21.65,21.65,0,0,0,3.09,6.55,16.49,16.49,0,0,0,4.88,4.55,12.67,12.67,0,0,0,12.73,0,15.47,15.47,0,0,0,4.82-4.52,22.21,22.21,0,0,0,3.06-6.51,27.22,27.22,0,0,0,1.07-7.72,27.71,27.71,0,0,0-1.07-7.71" transform="translate(-14.61 -6.76)"/><path class="cls-1" d="M353.16,233.2a25.66,25.66,0,0,0-5.93,6.29l-2.54-1.7a35.93,35.93,0,0,1,3.09-4.06,18.57,18.57,0,0,1,3.52-3.08,15.7,15.7,0,0,1,4.26-2,19,19,0,0,1,5.34-.69,15,15,0,0,1,5.41.94,12.77,12.77,0,0,1,4.26,2.64,12.42,12.42,0,0,1,2.83,4,11.88,11.88,0,0,1,1,5,14.21,14.21,0,0,1-.65,4.39,15.47,15.47,0,0,1-2.05,4.11,34.71,34.71,0,0,1-3.54,4.29c-1.44,1.5-3.15,3.16-5.15,5l-13.93,12.63H374.9v3.26H343.78v-2.54l17-15.34q2.81-2.53,4.75-4.62a26.55,26.55,0,0,0,3.13-3.9,14.37,14.37,0,0,0,1.69-3.51,11.68,11.68,0,0,0,.52-3.5,9.46,9.46,0,0,0-6.38-9.07,11.29,11.29,0,0,0-3.9-.69,12.47,12.47,0,0,0-7.42,2.18" transform="translate(-14.61 -6.76)"/><polygon class="cls-1" points="447.68 221.53 450.33 221.53 450.33 267.43 446.94 267.43 446.94 225.05 438.16 228.04 437.25 225.37 447.68 221.53"/><line class="cls-1" y1="210.63" x2="568.23" y2="210.63"/><line class="cls-2" y1="210.63" x2="568.23" y2="210.63"/><rect class="cls-1" x="91.71" y="39.15" width="40.38" height="20.56"/></svg>