<?xml version="1.0" encoding="utf-8"?>
<!-- Generator: Adobe Illustrator 23.1.0, SVG Export Plug-In . SVG Version: 6.00 Build 0)  -->
<svg version="1.1" id="Layer_1" xmlns="http://www.w3.org/2000/svg" xmlns:xlink="http://www.w3.org/1999/xlink" x="0px" y="0px"
	 viewBox="0 0 553.8 274" style="enable-background:new 0 0 553.8 274;" xml:space="preserve">
<style type="text/css">
	.st0{fill:#71181B;}
	.st1{fill:none;stroke:#71181B;stroke-miterlimit:10;}
	.st2{fill:#432918;}
</style>
<title>tibetan-logo</title>
<g>
	<path class="st0" d="M15.2,22.5l0.1,1.2l-0.7,3.8v2l3.8,21c0,4.6-2.4,9.4-7.2,14.4l-0.8-0.9l1.5-6.1v-3L7.8,36.2
		c0.1-1.6-0.4-3.3-1.5-4.5C9.8,26.3,12.8,23.3,15.2,22.5"/>
	<path class="st0" d="M45.5,58.9h5c1.5,0,2.9,1.1,4.2,3.2V63c0,4.1-4.4,9.2-13.3,15.2l-9.5,3.7h-6.3c-4.7-1.1-10.3-4-17-8.6
		l-7.5-5.7v-0.4c1-3.4,2.4-5.1,4.2-5.1h1.6l21.6,12.4L31,75h3.3c8.6-1.4,12.9-3.1,12.9-5v-2.7c0-0.9-2.6-1.8-7.9-2.8V64
		C42.2,60.6,44.3,58.9,45.5,58.9 M37.9,23.4h2.4c4.9,0,7.3,1.5,7.3,4.6v19.8c0,1.9-1.6,4.1-4.9,6.5c-8.6-3.4-14.7-5.1-18.3-5.1
		c-0.6,0-1-4.6-1.2-13.8C27.7,27.4,32.6,23.4,37.9,23.4 M30.2,30.8v8.3c0,3.1,1.2,4.6,3.7,4.6l6.5,0.9V40c0-7.1-0.8-10.6-2.4-10.6
		h-6.5L30.2,30.8z"/>
	<path class="st0" d="M59.6,23.5h0.9l0.8,0.9l0.4,16.7V44c0,0.7,2,1.2,6,1.4l0.8,0.9h2.1l-0.8-16.8c0.3-1.4,2.3-3.2,5.9-5.6h0.9
		l0.9,0.9L77,32.4l1.7,20.4c-1.5,3.1-2.6,4.8-3.4,5.1h-0.8c-1-1.2-5.7-3.6-14-7h-1.7c0,1.2-0.8,1.8-2.5,1.8c-0.7,0-1.2-0.6-1.3-1.8
		c0-6.9-0.4-13.7-1.3-20.5C53.7,29.7,55.7,27.3,59.6,23.5"/>
	<path class="st0" d="M89.9,22.9h0.4l0.8,1v3.7c0.1,8.5,1.2,16.9,3.3,25.1v0.5c-2.3,2.8-4.1,4.2-5.4,4.2c-1.9-3.7-3.6-12.8-5-27.4
		C84.1,29.1,86,26.8,89.9,22.9"/>
	<path class="st0" d="M116.1,23.8c6.2,0.2,12.3,1.4,18.2,3.3l0.4,1.4c0.1,7.1,0.8,14.1,2,21.1c0,2.2-2.3,4.9-6.9,8.1l-0.8-1.4v-3.9
		c-1.2-6.6-1.7-13.3-1.6-20l-3.2-1h-2.4c-0.5,0-0.8,0.5-0.8,1.4l1.6,13.4v0.9c-1.7,2.9-3.4,4.3-5.2,4.3c-6.1-1.9-10-2.9-11.7-2.9
		h-2.8c-2.1,0-3.2-3.3-3.2-10l-0.8-3.8c0-2.6,3.8-5.9,11.3-10L116.1,23.8z M105.9,30.4c0.4,8.6,1.2,12.9,2.4,12.9h5.6v-1h0.4
		l-1.2-6.1l1.2-6.2l-2-0.5h-2.8L105.9,30.4z"/>
	<path class="st0" d="M175.1,20.9c2.6,1.1,6.9,1.8,13.1,2.1l0.4,0.4v0.4c-1.1,1.9-3.3,3.3-6.8,4.2l-13.1-1.2h-2
		c-1.3,0-2.9,0.8-4.8,2.5v2.1h0.4l11.6-0.4c2.9,0,4.4,1.2,4.4,3.8l0.4,6.3c0,6.8-1.3,11.2-4,13.3c-2.5,2.4-4.1,3.7-4.8,3.7
		c-6.5-3.3-12.4-5-17.5-5c-1.5-0.1-3,0.2-4.4,0.8v-0.8c2.7-3.6,5.3-5.4,8-5.4h1.2c-0.4-5.8-1.2-8.7-2.4-8.7
		c-5.1,1.6-9.8,4.2-13.9,7.5h-0.4v-0.3c2.5-3.3,7.4-6.9,14.8-10.8l-0.7-9.7l7.1-5l0.4,6.4h0.4c0.9,0,2.5-1,4.8-2.9
		C169.5,22.4,172.3,21.4,175.1,20.9 M163.1,37.1l2.4,11.2v0.4c1.8,0.3,3.4,1,4.8,2.1l1.2-0.4V50c-0.2-8.1-1.1-12.7-2.8-13.7h-4.8
		L163.1,37.1z"/>
	<path class="st0" d="M196.4,38.4L196.4,38.4C197.3,53.8,201.8,63,210,66c3.7,1.4,5.6,2.4,5.6,3h-0.8c-6.7,0-13.2-3.5-19.6-10.4
		c-3.2-2.6-5.1-8.8-5.9-18.5c-0.1-2.1-0.1-4.3-0.1-6.7l-1.2-1.5c1.7-3.3,4.2-6.2,7.2-8.5h0.4l0.8,1v10.5c0,1.2,0,2.5,0.1,3.6"/>
	<path class="st0" d="M211.7,22.9h0.4l0.9,1v3.7c0.1,8.4,1.2,16.9,3.3,25v0.5c-2.3,2.8-4.1,4.2-5.4,4.2c-1.9-3.7-3.6-12.8-5-27.4
		C205.9,29,207.8,26.7,211.7,22.9"/>
	<path class="st0" d="M239.4,43.8l0.4,0.5v0.9c-2.1,3.6-5.8,6.9-11,9.8c-3.5,3.1-8,4.8-12.7,4.6c-7.6,1.6-11.3,3.4-11.3,5.6
		l-0.4,0.5h-1.3l-0.4-0.5h-0.4c4.3-8.4,10.3-12.6,18.1-12.6c6-1,11.7-3.6,16.5-7.5L239.4,43.8z M254.1,48.5
		c-3.8,5.3-10.2,10.2-19.1,14.5l-0.5,0.5v0.5c5.3,2.9,9.5,4.3,12.4,4.3c1.1,0,5.1-4.3,11.9-12.9h0.4c-7.1,13-13.7,19.6-19.8,19.6
		c-3.4,0-10.3-3.3-20.7-10v-0.5c2.6-3.2,4.8-4.8,6.4-4.8l7.3,2.8c6.3-2.4,11.5-7,14.8-12.8c0.8-1.1,1.7-2,2.6-2.9
		c-3.5-1.6-7.3-2.7-11.1-3.3l-3.4-1.4h-0.4c-0.8,1.2-3.9,2.3-9.3,3.3c-2.8,0-4.2-3.6-4.2-10.7v-1.9l-0.8-1.8c2.5-4.7,5-7,7.6-7
		l0.4,0.5v4.6l0.5,9.3h2.9l3-1v-5.6c0.4-3.7,1.9-5.6,4.6-5.6c1.4,0.2,2.1,0.7,2.1,1.4v0.5c0,5.9,1.1,8.9,3.3,8.9l4.6,1.4l0.4-0.4
		l-0.4-2.4v-7c1.2-2.1,2.8-4,4.6-5.6h0.8c0.8,0,1.9,7,3.3,21l-4.2,4.7L254.1,48.5z"/>
	<path class="st0" d="M233,0c8.2,0,14.3,3.9,18.3,11.8c5.3,6.5,8.3,11.2,9,14c-10.3-13.5-20.2-20.3-29.7-20.3
		c-2.7,0.5-5.2,1.9-6.9,4.1c0,1.6,2.3,2.7,6.9,3.2c4.3-0.2,6.5-0.5,6.5-0.9l1.2,0.4v0.5c-2.7,4.2-4.9,6.3-6.6,6.3h-5.3
		c-6.3-0.7-9.4-2.7-9.4-5.9c5.6-6.5,10.8-10.9,15.5-13.1L233,0z"/>
	<path class="st0" d="M270.5,22.9h0.4l0.9,1v3.7c0.1,8.5,1.2,16.9,3.3,25.1v0.5c-2.3,2.8-4.1,4.2-5.4,4.2c-1.9-3.7-3.6-12.8-5-27.4
		C264.7,29.1,266.6,26.8,270.5,22.9"/>
	<path class="st0" d="M292.2,23c7.1,0.6,10.7,1.7,10.7,3.2v12.9l3.1,16.6l-4.4,4.6h-0.5c-3.8-6.2-5.8-15.6-5.8-28.4l-0.5-2.3
		l-2.2-0.4h-3.1c-1.5,0.1-2.2,0.4-2.2,0.9l0.5,12.4c0,0.8-1.8,2.8-5.4,6c-1.4,0-2.4-5.1-3.1-15.2C283.8,27.5,288.1,24.2,292.2,23"/>
	<path class="st0" d="M341.6,59.8h5c1.5,0,2.9,1.1,4.1,3.2v0.9c0,4.1-4.4,9.1-13.3,15.1l-9.5,3.7h-6.2c-4.7-1.1-10.3-4-17-8.6
		l-7.5-5.6v-0.4c1-3.4,2.4-5.1,4.2-5.1h1.6l21.6,12.4l2.5,0.5h3.3c8.6-1.5,12.8-3.2,12.8-5.1V68c0-0.9-2.6-1.8-7.9-2.8v-0.4
		C338.4,61.4,340.4,59.7,341.6,59.8 M327,23.6h5.6c2.5,0.1,4.9,1.1,6.8,2.7l-0.8,3.7l0.4,4.1l-2.1,5.2c4.9,2,7.3,4.3,7.3,6.8
		c0,3.9-3.8,8.4-11.5,13.5h-0.9l-15.9-5.9l-4.6,0.4l-1.8-0.4c0-2.3,4-4.5,12-6.4c5.5-3.1,8.2-4.8,8.2-5.3v-0.8c0-1-2.6-1.5-7.8-1.5
		h-6.3c-2,0-3.1-1.5-3.1-4.5l-0.4-0.4v-0.4C312,28.4,317,24.8,327,23.6 M319.8,30c0.5,3,1.1,4.5,2.1,4.5h0.4l8.6-0.4V33
		c-0.3-3-1.7-4.5-4.3-4.5h-5.2L319.8,30z M323.2,48.8l12,5.3l1.7-1.9v-2.5c0-2-2-4-5.9-6C325.7,46.6,323.1,48.4,323.2,48.8"/>
	<path class="st0" d="M354.3,23.5h0.9l0.9,0.9l0.4,16.7V44c0,0.7,2,1.2,6,1.4l0.8,0.9h2.1l-0.8-16.8c0.4-1.4,2.3-3.2,5.9-5.6h0.9
		l0.9,0.9l-0.5,7.4l1.7,20.4c-1.5,3.1-2.6,4.8-3.4,5.1h-0.8c-1-1.2-5.7-3.6-14-7h-1.7c0,1.2-0.8,1.8-2.5,1.8c-0.7,0-1.2-0.6-1.3-1.8
		c0-6.9-0.4-13.7-1.3-20.5C348.3,29.6,350.3,27.3,354.3,23.5"/>
	<path class="st0" d="M384.6,22.9h0.4l0.9,1v3.7c0.1,8.5,1.2,16.9,3.3,25.1v0.5c-2.3,2.8-4.1,4.2-5.4,4.2c-1.9-3.7-3.6-12.8-5-27.4
		C378.8,29.1,380.7,26.8,384.6,22.9"/>
	<path class="st0" d="M406.2,23c7.1,0.6,10.7,1.7,10.7,3.2v12.9l3.1,16.6l-4.4,4.6h-0.5c-3.9-6.2-5.8-15.6-5.8-28.4l-0.5-2.3
		l-2.2-0.4h-3.2c-1.5,0.1-2.2,0.4-2.2,0.9l0.5,12.4c0,0.8-1.8,2.8-5.4,6c-1.4,0-2.4-5.1-3.1-15.2C397.8,27.5,402.1,24.2,406.2,23"/>
	<path class="st0" d="M366.9,5.9h1c19.3,3,32.2,6.4,38.9,10.1c9.6,2.6,14.4,5.3,14.4,8h-0.5c-6.7-5.3-17.7-8-33.2-8l-26-4.3h-4.3
		l-0.5,0.5h-0.5l-0.5-0.5v-0.5C360.3,7.7,364,5.9,366.9,5.9"/>
	<path class="st0" d="M429.9,23.5h0.9l0.9,0.9l0.4,16.7V44c0,0.7,2,1.2,6,1.4l0.8,0.9h2.1l-0.8-16.8c0.3-1.4,2.3-3.2,5.9-5.6h0.8
		l0.9,0.9l-0.5,7.5l1.7,20.4c-1.5,3.1-2.6,4.8-3.4,5.1h-0.8c-1-1.2-5.7-3.6-14-7H429c0,1.2-0.8,1.8-2.5,1.8c-0.7,0-1.2-0.6-1.3-1.8
		c0-6.9-0.4-13.7-1.3-20.5C424,29.7,426,27.3,429.9,23.5"/>
	<path class="st0" d="M460.2,22.9h0.4l0.9,1v3.7c0.1,8.5,1.2,16.9,3.3,25.1v0.5c-2.3,2.8-4.1,4.2-5.4,4.2c-1.9-3.7-3.6-12.8-5-27.4
		C454.4,29.1,456.3,26.8,460.2,22.9"/>
	<path class="st0" d="M503.9,23.6h0.8V24l-0.6,6.1l1.4,20.1c-1.3,3.9-2.5,5.8-3.6,5.8c-2.4-2.4-4.8-3.7-7.1-3.7
		c-3.7-1.4-7.2-3.3-10.3-5.8c-2.4,3-6.2,4.5-11.5,4.5c-2.4,0-3.6-4.8-3.6-14.4c0-6.9,4-11.1,11.9-12.7c6.7,1,10,2.4,10,4.1
		c0,10.5,0.9,15.8,2.8,15.8c0,0.6,0.7,1,2,1h1.5l-0.3-15C497.3,28.8,499.4,26.7,503.9,23.6 M476.9,29.8l-0.4,0.4v9.9
		c0.5,3.1,1.2,4.6,2,4.6h2.7c2,0,3-0.5,3.2-1.3V32.7C484.5,31.7,482,30.8,476.9,29.8"/>
	<path class="st0" d="M479.3,0c8.1,0,14.2,3.9,18.3,11.8c5.3,6.5,8.3,11.2,9,14c-10.3-13.5-20.2-20.3-29.8-20.3
		c-2.7,0.5-5.2,1.9-6.9,4.1c0,1.6,2.3,2.7,6.9,3.2c4.3-0.2,6.5-0.5,6.5-0.9l1.2,0.4v0.5c-2.7,4.2-4.8,6.3-6.5,6.3h-5.3
		c-6.3-0.7-9.4-2.7-9.4-5.9c5.6-6.5,10.8-10.9,15.5-13.1L479.3,0z"/>
	<path class="st0" d="M516.8,22.9h0.4l0.8,1v3.7c0.1,8.5,1.2,16.9,3.3,25.1v0.5c-2.3,2.8-4.1,4.2-5.4,4.2c-1.9-3.7-3.6-12.8-5-27.4
		C511,29.1,512.9,26.8,516.8,22.9"/>
	<path class="st0" d="M537.8,44.8c1,10.7,3,19.3,5.9,25.8l11.2,14v0.6c-2.8,0-9.2-6.4-19.1-19.1c-3.2-3.4-4.9-10.8-5.1-22.3
		c-0.4-3.4-0.6-6.8-0.6-10.2l-2.5-1.1v-0.5l7.7-8.7h2.1v7.1C537.3,35.4,537.5,40.3,537.8,44.8L537.8,44.8z"/>
</g>
<g>
	<path class="st0" d="M194.3,146.8c-0.2,0.2-0.5,0.4-0.8,0.5c-0.4,0.3-0.8,0.7-1.2,0.9c-0.5-0.1-0.9-0.3-1.2-0.8
		c-0.3-0.2-0.5-0.4-0.8-0.6v-13c0-1.1-0.2-2.1-0.4-3.1c-0.1-2.1-0.7-3.3-1.8-3.4l-1.2-0.1c-2,0.2-3.9,0.8-5.7,1.6
		c-0.6,0.5-1.2,1-1.8,1.6c-0.5,0.6-1.1,1.1-1.8,1.4l-1.2-2.7l1-1.2l1.3-1.1c1.2-1,2.6-1.9,4.2-2.4c0.5-0.1,1-0.2,1.5-0.2l1.1-0.7
		c1-0.7,1.6-1.7,1.7-2.9c0.1-0.9-0.6-1.8-1.6-1.8c0,0-0.1,0-0.1,0h-1.2c-0.4,0-0.8,0.1-1.1,0.4l-2,0.9l-5.5,3.3
		c-0.3,0-0.6,0.1-0.9,0.2c-0.8-0.1-1.5-0.3-2.1-0.8l-0.8-0.9l2.3-1.2l7.1-4.1l1.7-0.9h2c3.2-0.3,5.1,0.3,5.7,1.8l0.1,1.7l-0.1,1.5
		l-1.6,2.3c0.8,0.3,1.4,0.7,2,1.3c0.7,0.4,1.2,1,1.5,1.7c1,3,1.6,6.2,1.6,9.4l0.1,2.1L194.3,146.8z"/>
	<path class="st0" d="M257.1,126.6l-0.3,1.8c0,1.3-0.4,2.6-1.2,3.8c-0.4,0.4-0.9,0.8-1.3,1.2c-0.6,0.3-1.3,0.7-1.8,1.2l-3.3,2.1
		c-0.8,0.5-1.6,0.7-2.5,0.8c-1.8-0.4-3.4-1.4-4.4-2.9c-1.3-1.4-2.2-3.2-2.6-5.1l-0.1-1.2c0-1.2,0.2-2.3,0.7-3.4
		c0-1.1,0.3-2.1,0.8-3.1c0.6-1.3,1.3-2.6,2.3-3.7l1.5-2.3h4.4c1.8,0.1,3.5,0.9,4.7,2.3c1,1.3,1.8,2.7,2.3,4.3c0,0.3,0.1,0.6,0.3,0.9
		c0.1,0.3,0.2,0.5,0.2,0.8L257.1,126.6z M253,126.6c0.1-0.7,0-1.4-0.3-2c0-0.8-0.2-1.6-0.6-2.3c-0.4-2-2-3.6-4-4.1
		c-0.1,0.1-0.5,0.6-1.1,1.4c-0.8,1.3-1.6,2.7-2.2,4.1c-0.3,1-0.7,2.6-1.2,4.6c0,0.6,0.2,1.2,0.5,1.8c0.8,2.8,2.1,4.1,4,4.1l0.5,0.1
		h0.4c1,0,1.8-0.8,2.4-2.3C252.4,130.4,252.9,128.5,253,126.6"/>
	<path class="st0" d="M324,146.8c-0.2,0.2-0.5,0.4-0.8,0.5c-0.4,0.3-0.8,0.7-1.2,0.9c-0.5-0.1-0.9-0.3-1.2-0.8
		c-0.3-0.2-0.5-0.4-0.8-0.6v-13c0-1.1-0.2-2.1-0.4-3.1c-0.1-2.1-0.7-3.3-1.8-3.4l-1.2-0.1c-2,0.2-3.9,0.8-5.7,1.6
		c-0.6,0.5-1.2,1-1.8,1.6c-0.5,0.6-1.1,1.1-1.8,1.4l-1.2-2.7l1-1.2l1.3-1.1c1.2-1,2.6-1.9,4.2-2.4c0.5-0.1,1-0.2,1.5-0.2l1.1-0.7
		c1-0.6,1.7-1.7,1.8-2.9c0.1-0.9-0.6-1.8-1.6-1.8c-0.1,0-0.1,0-0.2,0H314c-0.4,0-0.8,0.1-1.1,0.4l-2,0.9l-5.5,3.3
		c-0.3,0-0.6,0.1-0.9,0.2c-0.8-0.1-1.5-0.3-2.1-0.8l-0.8-0.9l2.3-1.2l7.1-4.1l1.7-0.9h2c3.2-0.3,5.1,0.3,5.7,1.8l0.1,1.7l-0.1,1.5
		l-1.6,2.3c0.8,0.3,1.4,0.7,2,1.3c0.7,0.4,1.2,1,1.5,1.7c1,3,1.6,6.2,1.6,9.4l0.1,2.1L324,146.8z"/>
	<path class="st0" d="M384.1,128.8c-0.1,5.8-1.6,10.3-4.6,13.5c-4.4,3.1-7.1,4.7-7.9,4.7l-0.3-1.4l0.3-1.3c0.1-0.3,0.3-0.5,0.6-0.7
		l0.8-0.6c0.6,0,1.7-0.8,3.2-2.3c1.1-1,2-2.1,2.7-3.3c1.9-2.7,2.3-8.5,1.1-17.4l-3.4,0.8c-0.5,0.6-0.9,1.2-1.2,1.9
		c0,4.4-0.4,7.7-1.3,9.8l-0.6,0.6c-0.4,0.3-0.9,0.4-1.4,0.5h-0.6l-1.3-0.5v-1.2l1-0.4c0.4-1.2,0.6-2.4,0.5-3.6v-6.8
		c0.9-0.6,1.8-1.3,2.7-2.1l4.4-1.6l0.9-0.9c0.3-0.2,0.7-0.4,1.1-0.5h3.2L384.1,128.8z"/>
</g>
<line class="st1" x1="5.4" y1="99.7" x2="550.5" y2="99.7"/>
<g>
	<path class="st2" d="M103.6,230.9c-2.9,2.2-5.7,3.3-8.3,3.3h-0.9c-1.8,0-4.2-0.7-6.9-2.1c-0.7-0.9-1-1.5-1-1.7
		c-0.6,0.9-2.3,2.8-5.2,5.6c-0.9,1.2-1.3,2.3-1.4,3.4c0.1,0.3,0.5,0.5,1.1,0.5h0.6c1.6,0,4.5-0.6,8.6-1.7c1.2-0.3,2.5-0.4,3.8-0.4
		H95c4.9,0,10.1,1.7,15.7,5.2c0.7,0.3,2.4,1.8,5.1,4.3c4.4,3.1,8,5.8,10.7,8.1c2.4,2.2,4,3.3,4.9,3.3c0.5,0,0.7,0.3,0.9,0.9v0.1
		c0,0.2-0.8,0.3-2.5,0.3l-10-6.9c-12.8-7.2-22.8-10.9-29.9-10.9c-1.8,0-5.4,0.6-10.8,1.9l-3,0.4c-1.3-0.6-1.9-1.4-1.9-2.3v-0.2
		c1.1-2,3.4-4.8,6.8-8.3l4.9-3.9l-0.1-0.5l4.7-3c0.3,1.3,0.8,2.1,1.5,2.6c1.2,1,3.2,1.5,5.9,1.5h0.5c2.6,0,5.1-0.8,7.3-2.4l0.6,0.7
		C105.6,229.6,104.6,230.4,103.6,230.9 M106.1,227.7v-0.1c0-0.3-0.6-1-1.8-1.9c-2-2.2-3.8-3.6-5.2-4c-1-0.6-2.2-1.2-3.5-1.6
		l-3.8,0.8c-1.5,0-2.3-0.5-2.3-1.6c-0.1,0-0.2-0.4-0.2-1.1v-0.3c0.2-1.4,1.6-3.9,4.2-7.6c3.5-3.6,6.2-6.2,8.3-7.7
		c0.6-0.7,1.4-1.1,2.4-1.1h0.2c0.9,0,1.5,1,1.7,3l0.1,0.6c-0.2,1.5-0.7,2.5-1.5,3c-0.4,0.3-0.9,0.7-1.3,1.3v0.2
		c0.3,0.6,1.2,3.7,2.7,9.2c1.8,3.6,2.7,6.4,2.7,8.3c0,0.9-0.3,1.7-0.9,2.3h-0.4c-0.2,0-0.3-0.3-0.5-0.9h-0.6l0,0l-0.6-0.7
		C105.9,227.9,106,227.8,106.1,227.7 M93.9,214.1v0.6c0,1,0.8,1.6,2.4,1.6c1.1-0.3,2.2-0.5,3.1-0.5h0.2c1.1,0,2.5,0.4,4.3,1.3
		l-1.5-4.2l0.1-0.8v-1.3l-0.7-0.1c0,0.2-0.3,0.3-0.8,0.4h-0.2c-0.3,0-0.7-0.3-1.4-0.9c-0.4,0-0.9-0.3-1.5-1c-1.2,0.5-1.9,1-2,1.5
		C94.6,211.8,94,213,93.9,214.1"/>
	<path class="st2" d="M94.3,189H95c2.1,0,4.4,0.9,7,2.7c1.5,1.6,2.2,3,2.3,4.1c4.1-4.2,7.6-6.4,10.5-6.5c6.5-0.2,11.4,0.2,14.6,1.4
		c0.8,0.2,1.5,0.6,2.1,1.3c2.4,0.6,5.8,0.9,10.1,0.7c0.4,0.1,0.6,0.3,0.6,0.6l0,0.7l-0.2,0.2l-1.8-0.3h-0.6c-1.3,0.5-4.9,1-10.8,1.6
		h-0.1c-1.7,0.1-4.6-0.3-8.6-1.2l-5.5-0.5l-1.9,0.3l-2.5-0.1c-1.3,0-2.6,0.7-3.9,2c-0.6,0.7-1.2,2.1-1.7,4.2
		c-0.6,0.7-1.1,1.3-1.5,1.6l-0.6,0c-1.2-0.8-2.6-2.3-4.3-4.5c-3.1-2.9-5.9-4.4-8.5-4.3h-0.1c-0.7,0-1.7,0.3-2.9,0.7l-0.3-0.1v0
		c0-0.7,1.9-2.1,5.8-4.1L94.3,189z"/>
	<path class="st2" d="M120.4,201.3l0.1,0.1v0.1c-0.9,2.3-1.4,4.8-1.4,7.2c0,2.6,1,7.4,3.1,14.4c0.9,3.2,1.3,5.2,1.3,5.9l-0.1,0.1
		h-0.6c-6.1-7.2-9.2-12.8-9.2-16.8l-0.2-1.5c0-2.3,0.5-4.5,1.4-6.8C114.8,203.9,116.6,203,120.4,201.3"/>
	<path class="st2" d="M141.1,201.8h0.1l2.9,0.1l1.5-0.1c0.3,1.1,0.5,2.1,0.5,3l-2,2.5l-0.2,2c0,2.9,1,6.2,3,9.9
		c0.3,0.6,0.6,1.6,0.9,3c0.7,1,1,1.7,1,2c-0.3,1.2-0.9,1.8-1.7,1.8c-0.6,0-2.2-1.3-4.7-3.9c-3.6-2.8-7.7-4.2-12.3-4.2
		c-1.9-0.1-2.9-0.5-2.9-1.2l-0.1-0.9v-0.2c0.2-1.2,2.2-3.9,6-8.4c2.6-2.4,4.5-3.9,5.7-4.3C140.1,202.2,140.9,201.8,141.1,201.8
		 M136.5,206.4c-2.8,2.9-4.1,4.9-4.1,5.9c0,0.9,1.1,1.4,3.2,1.4c3.3,0,5.6,0.5,6.8,1.5h0l-0.7-6.4l-1.1,0.1c-0.4,0-1.6-0.8-3.5-2.4
		L136.5,206.4z"/>
	<path class="st2" d="M173.1,201c0.3,2.6,0.8,4.8,1.6,6.6c1,3.4,1.5,6.4,1.5,9v0.8c0,2.7-0.3,4.2-0.9,4.6c-1.7,1.8-2.9,2.8-3.6,2.8
		h-0.3c-0.1,0-0.2-0.2-0.3-0.6l0.3-0.6v-0.1c-0.6-1-2-2.3-4.1-3.7c-2.4-1.5-5.3-2.3-8.7-2.3c-0.9,0-2.9,0.5-6,1.6h-0.8l-0.2-0.2
		c0-0.3,2.6-1.4,7.8-3.3c1.4-0.3,3-0.5,4.6-0.5h0.9c2.8,0,4.8,0.4,6,1.1l0.7,0.1c0-1.3-0.4-2.9-1.1-4.8c-0.3-0.4-0.6-0.6-0.9-0.6
		c0,0.3-0.6,0.6-1.7,0.8c0,0.1-0.2,0.1-0.6,0.1h-0.2c-0.3,0-0.7-0.3-1.1-0.9h-0.1l-0.1,0.1l-3.3-0.5c-0.8,0-2.6,0.4-5.4,1.3
		l-0.4-0.2v-0.1c1.5-0.9,3.6-1.8,6.2-2.6c1.8-0.6,3-0.9,3.6-0.9h0.6l2.3,0.3h0.1l-0.9-2.2c0-0.8-0.3-1.1-1-1.1h-0.9
		c-1.5-0.4-2.8-0.6-3.8-0.6h-0.3c-0.8,0-4.1,0.4-9.7,1.2l-0.4-0.2c4.2-1.9,7.2-2.9,9.2-2.9c2.8-0.5,4.3-0.8,4.6-1
		c1.5,0,2.8,0.2,3.7,0.4L173.1,201z"/>
	<path class="st2" d="M188.2,201.8h0.1v0.1c-0.5,1.3-1,3.3-1.5,6c0,5.8,0.4,8.8,1.2,9.1c1.1,2.6,2.1,4.4,3.1,5.4
		c0.8,0.4,1.8,1.9,3,4.6c0.2,0.2,0.4,1,0.8,2.5c1.2,1.8,2.9,3.7,4.9,5.6c1.3,1.3,4.3,3.3,9,6l-0.3-9.6l0.1-0.1h0.2
		c0.5,0,0.8,0.4,0.8,1.1l0.4,10.4l-0.1,0.1h-0.1c-1.7-0.5-4.5-1.9-8.4-4.2c-2-0.9-4.2-2.5-6.7-4.7c-1.5-0.9-3.9-2.8-7.2-6
		c-2.5-2.7-3.9-4.7-4.2-6c-0.9-1.2-1.4-2.8-1.6-4.8v-4.3c0.3-4.2,0.8-6.6,1.3-7.4L188.2,201.8z"/>
	<path class="st2" d="M206.2,201.3l0.1,0.1v0.1c-0.9,2.3-1.4,4.8-1.4,7.2c0,2.6,1,7.4,3.1,14.4c0.9,3.2,1.3,5.2,1.3,5.9l-0.1,0.1
		h-0.6c-6.1-7.2-9.2-12.8-9.2-16.8l-0.2-1.5c0-2.3,0.5-4.5,1.4-6.8C200.5,203.9,202.4,203,206.2,201.3"/>
	<path class="st2" d="M220.9,201.3l0.1,0.1v0.1c-0.9,2.3-1.4,4.8-1.4,7.2c0,2.6,1,7.4,3.1,14.4c0.9,3.2,1.3,5.2,1.3,5.9l-0.1,0.1
		h-0.6c-6.1-7.2-9.2-12.8-9.2-16.8l-0.2-1.5c0-2.3,0.5-4.5,1.4-6.8C215.3,203.9,217.2,203,220.9,201.3"/>
	<path class="st2" d="M251.5,198.3c0.1,0,0.3,0.3,0.4,0.8c-0.2,0-1.4,1.1-3.6,3.4c-2.1,1.2-3.8,1.9-5,2.2v0.1c1.3,0.6,1.9,0.9,1.9,1
		c0.5,1,1,1.6,1.7,1.6c0.3,0.4,0.4,0.7,0.4,0.9v0.7c-0.7,0.5-1.1,1.3-1.1,2.2v1.3c1.5,1.8,2.7,2.8,3.8,2.8h0.3
		c0.9,0,2.1-0.5,3.8-1.5l1.1,5.9c0,4.4-3.3,10.5-9.9,18.3c-4,4.1-7,6.9-9.1,8.6l-4.2,2.7v0.1c3.2,0,7.9,0.9,14.2,2.6l0.1,0.1
		l0.8,0.3v0c3.6-5.1,7.4-12.2,11.3-21.4l3.1-5.7h0.2v0.2l0.1,1c-4.4,10.1-8.9,19.1-13.6,27.2c-0.7,2-1.5,3.3-2.6,4.1h-0.2
		c-1.5-1.1-4.7-2.3-9.9-3.6c-1.7-0.3-3.9-0.5-6.4-0.6c-3.4,0-8,1.2-13.8,3.6l-0.2,0.2c-1-0.1-1.4-0.2-1.4-0.3
		c0.8-0.9,2.9-2.2,6.4-3.9c2.7-1.4,6-2.7,9.8-3.9c2.1-0.7,5.4-3.3,10-7.7c6.9-8.3,10.4-14.2,10.4-17.7v-0.3c0-0.7-0.2-1.4-0.7-2V219
		l-0.6-0.5h-0.6c-0.3,0-0.7,0.2-1.2,0.7c-0.5,0-1.7-0.2-3.6-0.6v0.1c0,0.6,0.6,2.5,1.8,5.8v0.4c0,0.4-0.2,1-0.6,1.8
		c-0.8,0-1.4-0.3-1.8-0.9c-2.1-2.1-3.5-3.1-4.1-3.1h-0.1l-4.3,0.6c-1.6,0-2.7-0.9-3.1-2.6c0.3-1.8,1.2-3.5,2.7-4.9
		c2.8-2.6,5-4.2,6.8-4.9c0.4-0.2,0.6-0.3,0.7-0.4c-0.5-0.9-1.6-1.8-3.3-2.5c-1.2-0.5-2.4-0.7-3.3-0.7c-0.9,0-2.5,0.3-4.9,0.8h-1.5
		l-1-0.1v-0.2c1.2-1.3,5.8-2.6,13.7-3.8c1.8,0,3.6-1.1,5.1-3.4C248.1,199,249.8,198.3,251.5,198.3 M236.1,217.2
		c0,1.5,1.1,2.2,3.2,2.2c1.3-0.3,1.9-0.7,1.9-1.2c-0.2-1-0.6-1.5-1.1-1.5c-1-0.8-1.6-1.2-1.6-1.3c-1.4,0.4-2.1,0.9-2.1,1.3
		L236.1,217.2z"/>
	<path class="st2" d="M268.4,201.3l0.1,0.1v0.1c-0.9,2.3-1.4,4.8-1.4,7.2c0,2.6,1,7.4,3.1,14.4c0.9,3.2,1.3,5.2,1.3,5.9l-0.1,0.1
		h-0.6c-6.1-7.2-9.2-12.8-9.2-16.8l-0.2-1.5c0-2.3,0.5-4.5,1.4-6.8C262.7,203.9,264.6,203,268.4,201.3"/>
	<path class="st2" d="M289.8,200.9l0.2,0.3v0.2l-0.7,1v0.4c0.4,0.3,0.7,0.6,0.7,1l0.1,0.7c0,0.7-0.2,1.3-0.5,1.7v0.3l1.1,2
		c0.6,0.8,0.8,1.6,0.8,2.5v0.3c0,1.2-0.9,2.6-2.8,4.1c-0.7,1-1.5,1.4-2.3,1.4l-4.7,2.4l-0.9,0.2c-1.7,0-3.4-0.7-5-2.1
		c-0.4-0.9-0.6-1.9-0.6-2.9c0-1.1,1.8-3.5,5.3-7.3c1.9-1.7,3.4-2.8,4.4-3.1C287.7,202,289.3,201.1,289.8,200.9 M280,210.9
		c0,1.9,0.9,3.2,2.8,4l2.1,0.2c0.5,0,1.1-0.4,1.7-1.2c0-0.8-0.2-1.5-0.6-2.2c-0.2,0-0.5-0.6-1.1-1.7l-0.1-0.1H284
		c-0.8,0-1.6-0.2-2.4-0.7C280.6,209.4,280,210,280,210.9L280,210.9z M301.6,205.2h0.3l0.2,0.2v3c0,0.2,0.8,1.6,2.3,4.3l0.2,2
		c0,1.8-0.4,3.2-1.3,4.1c-0.4,0.6-1.6,1.5-3.5,2.8c-4,2.9-6.8,4.5-8.2,4.7c-2.8,0-4.6-1.4-5.5-4.1v-0.3c0-1.6,0.6-2.7,1.9-3.3
		c1.6-1.3,2.9-2.1,4-2.6l0.1,0.1v0.4c-0.8,0.6-1.2,1.4-1.2,2.3c0,1.7,1.1,3,3.2,3.9l0.5,0.1c1.5,0,3-0.7,4.6-2
		c0.8-0.2,1.2-1,1.2-2.5V218c0-2-0.3-3.2-0.8-3.7l-1.8-2.4c-0.1-0.3-0.2-0.7-0.2-1.5v-0.6c0-1.5,0.5-2.4,1.6-2.8
		C299.6,206.4,300.4,205.8,301.6,205.2"/>
	<path class="st2" d="M321,195.5L321,195.5l0.1,0.2c-0.7,0.7-1.3,2.2-1.6,4.4c-0.2,0.7-0.3,1.4-0.3,1.9c0,1.2,0.3,2.5,1,3.8
		c0.3,0,2.1-1,5.5-3.1l2.4-0.4c0.7,0.2,2.1,0.5,4.1,0.8c1.4,1.9,3,4.4,4.8,7.5c0.9,0.9,2.3,1.9,4,2.9l0.6,0.7v0.2
		c-2.7-0.7-4.8-1.5-6.2-2.4c-1.3-1.1-2.8-2.1-4.5-3.2c-2.3-2.3-4.6-3.5-6.9-3.5c-0.7,0-1.8,0.6-3.3,1.8c-0.1,0-0.2,0.3-0.2,1
		c0.9,1.7,1.3,2.8,1.3,3.3v0.8c0,1.7-2.2,3.9-6.6,6.8c-1.9,1.3-3.3,2-4.1,2h-0.6c-1.9-0.3-2.9-0.8-2.9-1.6c-0.2,0-0.3-0.4-0.4-1.1
		v-0.1c0-2.3,1.1-4.6,3.2-6.8l4.9-4.1c-0.3-1.2-0.5-2.1-0.5-2.8v-1.9c0-0.9,0.6-2.5,1.7-4.7l4.3-2.4H321z M315.8,212.1
		c-1.3,1.1-2.5,1.7-3.8,1.7l-0.7,0.4l-0.1,1v0.1c0,0.8,0.8,1.6,2.5,2.2l0.6,0.1h0.8c0.4-0.3,1.1-0.6,2.1-1l0.2-1.7
		C317.3,213,316.7,212.1,315.8,212.1 M327.4,210c2.2,0,4.1,1.5,5.7,4.4c0.4,1,0.6,1.9,0.6,2.5v0.7c0,1.7-1.6,4.1-4.7,7
		c-1.7,1.6-3.3,2.5-4.7,2.5h-0.2c-1.8,0-3.3-1.2-4.6-3.5c-0.1-0.2-0.2-0.5-0.2-1v-0.4c0-1.4,1.1-2.8,3.4-4.1l1.5-1.1h0.1l0.3,0.1
		c-0.5,1.4-0.7,2.3-0.7,2.7c0,1.6,1.1,2.9,3.3,3.7l0.5,0.1c1.2,0,1.8-1.1,1.8-3.4V220c-0.3-1.8-1-3.3-1.9-4.5
		c-1.2-1.5-2.6-2.2-4.1-2.2l-0.1-0.1c0-0.5,1.1-1.3,3.2-2.6L327.4,210z"/>
	<path class="st2" d="M312.3,189.3h0.7c2.1,0,4.4,0.9,7,2.7c1.5,1.6,2.2,3,2.3,4.1c4.1-4.2,7.6-6.4,10.5-6.5
		c6.5-0.2,11.4,0.2,14.6,1.4c0.8,0.2,1.5,0.6,2.1,1.3c2.4,0.6,5.8,0.9,10.1,0.7c0.4,0.1,0.6,0.3,0.6,0.6l0,0.7l-0.2,0.2l-1.8-0.3
		h-0.6c-1.3,0.5-4.9,1-10.8,1.6h-0.1c-1.7,0.1-4.6-0.3-8.6-1.2l-5.5-0.5l-1.9,0.3l-2.5-0.1c-1.3,0-2.6,0.7-3.9,2
		c-0.6,0.7-1.2,2.1-1.7,4.2c-0.6,0.7-1.1,1.3-1.5,1.6l-0.6,0c-1.2-0.8-2.6-2.3-4.3-4.5c-3.1-2.9-5.9-4.4-8.5-4.3h-0.1
		c-0.7,0-1.7,0.3-2.9,0.7l-0.3-0.1v0c0-0.7,1.9-2.1,5.8-4.1L312.3,189.3z"/>
	<path class="st2" d="M349.9,201.3l0.1,0.1v0.1c-0.9,2.3-1.4,4.8-1.4,7.2c0,2.6,1,7.4,3.1,14.4c0.9,3.2,1.3,5.2,1.3,5.9l-0.1,0.1
		h-0.6c-6.1-7.2-9.2-12.8-9.2-16.8l-0.2-1.5c0-2.3,0.5-4.5,1.4-6.8C344.2,203.9,346.1,203,349.9,201.3"/>
	<path class="st2" d="M366,201.9l0.2,0.2c-1.3,3.5-2,6.3-2,8.4v0.2c0,1.1,0.6,2.4,1.9,3.9l1.5,0.5c2.4-1.6,4-2.4,5-2.4l1.4,0.3V213
		c-0.3-1.1-0.4-2.2-0.4-3.4v-1.2c0-2.3,0.4-3.8,1.2-4.5l4.2-1.9l0.6,0.2v0.1c-0.5,0.9-0.8,2.3-0.8,4.1s0.4,4,1.3,6.5
		c0.9,2.6,1.3,5.2,1.3,7.8v2.1c-0.2,2.3-1.6,5-4.1,7.9c-4.1,3.6-7.1,5.8-8.8,6.6c-5.4,2.9-11.6,5.3-18.5,7.3v0.1
		c3.8,1,6.5,2.1,8,3.3c1.8,2.3,3.2,4.3,4.1,6.1c0.2,0.6,2.5,2.4,6.9,5.6c0,0.5-0.4,0.7-1.2,0.7c-0.8,0-5.6-3.1-14.5-9.2
		c-3.5-2.3-6.5-3.5-9.2-3.5h-1.2c-1.4,0-3.3,0.5-5.6,1.4l-0.9-0.3v-0.2c3.1-1.8,7-3.3,11.6-4.3c9.5-3.1,15.3-5.4,17.5-6.8
		c1.7-0.8,3.7-2.1,6.1-4c2-1.6,3.5-4.4,4.6-8.6l0.1-1.3v-1.9c0-1.5-0.8-2.4-2.3-2.8c-1.2-0.7-2.6-1.8-4.4-3.2
		c-0.2,0-1.4,0.8-3.8,2.3c-0.5,0.2-1,0.3-1.8,0.3H364c-2,0-3.4-0.7-4-2c-0.8-1.5-1.2-2.5-1.2-3.2c1.2-5.8,2-8.7,2.3-8.7
		c0.1-0.2,1.6-1,4.7-2.3H366z"/>
	<path class="st2" d="M360.8,182.4L360.8,182.4c2.6,0,5.1,1.3,7.3,4c1.6,1.7,2.9,3.2,3.9,4.7c0.7,2.8,2.2,5.3,4.4,7.6
		c0.5,0.3,1.1,1.3,2,2.9c1.5,2,2.3,3,2.3,3.1h-0.1l-0.7,0.1h-0.1c-6.1-6.3-11.5-11.6-16.2-15.9c-2.2-2.2-4-3.3-5.4-3.3
		c-1.3,0-2.3,0.6-3,1.9c0,0.5,0.7,0.9,2.2,1c0.7,0,1.1,0.1,1.1,0.3c-0.4,1.1-1.4,1.9-3,2.7c-0.6,0.3-1.3,0.4-2.1,0.4h-0.7
		c-0.8-0.8-1.1-1.5-1.1-2.1c0-0.7,0.7-1.6,2.2-2.8c1.8-1.7,3.6-3,5.2-3.7C359.1,183.1,359.7,182.8,360.8,182.4"/>
	<path class="st2" d="M393.5,201.3l0.1,0.1v0.1c-0.9,2.3-1.4,4.8-1.4,7.2c0,2.6,1,7.4,3.1,14.4c0.9,3.2,1.3,5.2,1.3,5.9l-0.1,0.1
		h-0.6c-6.1-7.2-9.2-12.8-9.2-16.8l-0.2-1.5c0-2.3,0.5-4.5,1.4-6.8C387.9,203.9,389.8,203,393.5,201.3"/>
	<path class="st2" d="M417.2,201.5h0.1c0.6,0,1,0.4,1.1,1.3l0.6,2.6c0.6,0.6,1.2,2.2,2,4.8v0.3c0,2.3-0.7,3.9-2,4.8
		c-1.8,1.9-4,3.5-6.5,4.7l-1.1,0.6c1.3,0.8,2.9,2.1,5,3.8c0.9,0.6,1.6,0.9,2.1,0.9h1.2c0.5-0.5,0.7-1,0.7-1.5v-0.5
		c0-0.4-0.8-1.7-2.4-3.7v-0.2c0.5-0.6,2-1.7,4.6-3.2h0.4l1.2,1.7c0.7,0.6,1.1,1.4,1.1,2.5c-0.5,2.3-1,3.5-1.7,3.5
		c-4.6,3.9-7,5.8-7.2,5.8h-0.1c-1.2,0-2.7-0.3-4.4-0.9c-1.5-1.7-2.7-2.7-3.7-3c0-0.8-0.8-1.3-2.3-1.4l-2.1-0.4h-0.3
		c-0.8,0.3-2,0.5-3.6,0.7l-2.3,1c-0.3-0.1-0.5-0.2-0.5-0.3c4.4-2.9,7.9-4.6,10.6-5.2c2.4-0.5,4.2-1.2,5.6-2.1
		c1.5-1.1,2.2-2.3,2.2-3.5v-0.2h-0.9c-2,0.9-3.5,1.4-4.5,1.4h-0.6c-1.8,0-3.1-0.7-3.8-2c-0.3-0.3-0.6-1.6-0.9-4
		C406.3,207,410.4,204.2,417.2,201.5 M409.7,208.4v0.3c0,0.9,1,1.9,3.1,3.1l0.8,0.1c0.6-0.1,1-0.2,1-0.3c-0.3-0.5-0.5-1.3-0.6-2.5
		c-0.4-0.3-0.6-0.6-0.6-0.9l-1.5,0.1l-1.3-0.8C409.9,207.7,409.7,208,409.7,208.4"/>
	<path class="st2" d="M445.5,200.2h0.4v0.3c-0.8,1.5-1.1,2.5-1.1,2.8v0.9c0,2.3-1.2,4.6-3.6,6.7c-1.6,1.8-2.7,2.7-3.2,2.7
		c0,0.4,0.3,0.7,0.9,0.9c1.7,0.9,3.5,2.6,5.4,5.2c2.3,3.4,5.3,12.6,8.8,27.5v1.5c0,2.5,0.4,4.2,1.1,5.3c0.6,1.5,1,2.9,1,4.1v0.2
		l-0.2,0.4h-0.3c-1.1-1.6-2.4-4.6-4.1-9c-1.8-4.5-3.5-9.1-5-13.8c-3-8.2-5.2-13.1-6.6-14.5c-2.9-2.8-5.1-4.2-6.7-4.2l-0.7-0.1
		c-1.5,0-2.8,0.4-4,1.3l-0.2,0.1c-0.3,0-0.4-0.1-0.4-0.3v-0.5c0-0.2,0.4-0.4,1.1-0.6c1-1.1,2.9-2.2,5.8-3.4c2.2,0,4.2-1.3,5.8-3.8
		c0.5-0.7,0.8-2.3,1.1-4.8c0-0.9,0.4-1.5,1.1-2C442.2,202.1,443.4,201.2,445.5,200.2"/>
	<path class="st2" d="M458.5,201.3l0.1,0.1v0.1c-0.9,2.3-1.4,4.8-1.4,7.2c0,2.6,1,7.4,3.1,14.4c0.9,3.2,1.3,5.2,1.3,5.9l-0.1,0.1
		h-0.6c-6.1-7.2-9.2-12.8-9.2-16.8l-0.2-1.5c0-2.3,0.5-4.5,1.4-6.8C452.8,203.9,454.7,203,458.5,201.3"/>
	<path class="st2" d="M470.5,201.6l0.1,0.1v0.1l-0.3,1.9c0,7.9,0.8,14.3,2.5,19.3c1.4,8.3,2.5,12.9,3.1,13.9
		c1.4,5.4,2.1,8.6,2.1,9.4l-0.8,1.5l0.3,1v0.6l-0.1,1.4c0.6,1.9,2,5,4.3,9.4l-0.8,0.4c-2.7-4.9-4.9-8.6-6.5-11.1
		c-1.3-2.6-2.8-7.7-4.7-15.2c-2.9-12.7-4.4-20.7-4.4-24.3c0-4,0.2-6,0.6-6L470.5,201.6z"/>
</g>
</svg>
